HIERARCHY
ROOT Root
{
	OFFSET 0.00 0.00 0.00
	CHANNELS 6 Xposition Yposition Zposition Xrotation Yrotation Zrotation
	JOINT L_Femur
	{
		OFFSET 3.69615 0.00000 0.00000
		CHANNELS 3 Xrotation Yrotation Zrotation
		JOINT L_Tibia
		{
			OFFSET 0.00000 -15.48154 0.00000
			CHANNELS 3 Xrotation Yrotation Zrotation
			JOINT L_Foot
			{
				OFFSET 0.00000 -15.45804 0.00000
				CHANNELS 3 Xrotation Yrotation Zrotation
				JOINT L_Toe
				{
					OFFSET 0.00000 -1.61659 6.03322
					CHANNELS 3 Xrotation Yrotation Zrotation
					End Site
					{
						OFFSET 0.00000 0.00000 2.95275
					}
				}
			}
		}
	}
	JOINT R_Femur
	{
		OFFSET -3.69615 0.00000 0.00000
		CHANNELS 3 Xrotation Yrotation Zrotation
		JOINT R_Tibia
		{
			OFFSET 0.00000 -15.48154 0.00000
			CHANNELS 3 Xrotation Yrotation Zrotation
			JOINT R_Foot
			{
				OFFSET 0.00000 -15.45804 0.00000
				CHANNELS 3 Xrotation Yrotation Zrotation
				JOINT R_Toe
				{
					OFFSET 0.00000 -1.61659 6.03322
					CHANNELS 3 Xrotation Yrotation Zrotation
					End Site
					{
						OFFSET 0.00000 0.00000 2.95275
					}
				}
			}
		}
	}
	JOINT LowerBack
	{
		OFFSET 0.00000 0.03937 0.00000
		CHANNELS 3 Xrotation Yrotation Zrotation
		JOINT Thorax
		{
			OFFSET 0.00000 8.86644 0.00000
			CHANNELS 3 Xrotation Yrotation Zrotation
			JOINT Neck
			{
				OFFSET 0.00000 9.52797 0.00000
				CHANNELS 3 Xrotation Yrotation Zrotation
				JOINT Head
				{
					OFFSET 0.00000 6.76959 0.00000
					CHANNELS 3 Xrotation Yrotation Zrotation
					End Site
					{
						OFFSET 0.00000 4.52755 0.00000
					}
				}
			}
			JOINT L_Collar
			{
				OFFSET 0.00000 9.52797 0.00000
				CHANNELS 3 Xrotation Yrotation Zrotation
				JOINT L_Humerus
				{
					OFFSET 6.91428 -0.00003 0.00000
					CHANNELS 3 Xrotation Yrotation Zrotation
					JOINT L_Elbow
					{
						OFFSET 11.23919 -0.00004 0.00000
						CHANNELS 3 Xrotation Yrotation Zrotation
						JOINT L_Wrist
						{
							OFFSET 9.07538 -0.00003 0.00000
							CHANNELS 3 Xrotation Yrotation Zrotation
							JOINT L_Thumb
							{
								OFFSET 0.00000 0.00000 0.00000
								CHANNELS 3 Xrotation Yrotation Zrotation
								End Site
								{
									OFFSET 0.00000 0.00000 3.93700
								}
							}
							End Site
							{
								OFFSET 3.93700 -0.00001 0.00000
							}
						}
					}
				}
			}
			JOINT R_Collar
			{
				OFFSET 0.00000 9.52797 0.00000
				CHANNELS 3 Xrotation Yrotation Zrotation
				JOINT R_Humerus
				{
					OFFSET -6.91428 -0.00003 0.00000
					CHANNELS 3 Xrotation Yrotation Zrotation
					JOINT R_Elbow
					{
						OFFSET -11.23919 -0.00004 0.00000
						CHANNELS 3 Xrotation Yrotation Zrotation
						JOINT R_Wrist
						{
							OFFSET -9.07538 -0.00003 0.00000
							CHANNELS 3 Xrotation Yrotation Zrotation
							JOINT R_Thumb
							{
								OFFSET 0.00000 0.00000 0.00000
								CHANNELS 3 Xrotation Yrotation Zrotation
								End Site
								{
									OFFSET 0.00000 0.00000 3.93700
								}
							}
							End Site
							{
								OFFSET -5.39369 -0.00002 0.00000
							}
						}
					}
				}
			}
		}
	}
}
MOTION
Frames: 15
Frame Time: 0.066664
 14.7662 33.3441 14.2088 -10.1433 -74.9626 -11.8157 1.9194 10.0639 6.8113 13.9134 0.0000 -0.0000 -8.9781 -12.0718 -16.3391 -31.0264 0.0000 0.0000 9.9298 -14.6484 -1.1458 1.4220 0.0000 -0.0000 -1.4099 0.7030 31.9163 -20.0061 0.0000 -0.0000 -16.6046 -3.6593 -1.4635 26.6007 -4.5792 0.4621 17.9821 -6.8693 -0.8576 -11.1878 -5.8404 3.5036 1.5331 17.1516 20.2332 -12.6392 -6.1071 -52.4045 -0.0002 -41.9346 -0.0001 -15.2569 -15.6988 -9.5503 -0.0000 0.0000 -0.0000 0.9332 3.6745 -13.0531 -4.1457 1.3778 67.9213 -0.0003 52.9244 0.0001 -14.2848 -3.8155 9.4914 -0.0000 0.0000 -0.0000
 14.5944 33.2502 15.0081 -8.2447 -73.7555 -9.4403 2.6344 6.1969 4.6823 14.1063 0.0000 -0.0000 -9.9316 -9.7247 -15.9467 -31.1757 -0.0000 -0.0000 5.6591 -14.7119 -3.7988 10.0235 0.0000 -0.0000 -5.5242 -0.8399 31.3190 -20.8160 0.0000 -0.0000 -16.3399 -3.4265 -1.7358 26.8169 -4.2099 0.5524 18.2939 -8.0830 -0.7615 -10.7619 -7.2596 3.2018 3.0562 17.3631 18.0808 -9.8067 -12.6770 -62.9660 -0.0002 -44.3040 -0.0001 -18.8063 -15.8150 -13.7128 -0.0000 0.0000 -0.0000 1.9512 3.2599 -10.7792 -3.6308 6.4834 77.6858 -0.0003 55.4393 0.0002 -14.5236 -3.2586 10.0455 -0.0000 0.0000 -0.0000
 14.3990 33.0401 15.8954 -6.7713 -73.2422 -6.2137 3.3220 5.0048 1.4676 14.2283 -0.0000 -0.0000 -10.8591 -9.2471 -16.0474 -31.3694 0.0000 0.0000 -3.0530 -11.4566 -8.2403 26.6811 0.0000 -0.0000 -9.0763 -5.3100 30.8858 -20.5052 0.0000 -0.0000 -15.7612 -3.0128 -1.6761 26.8268 -4.8777 -1.4541 18.4079 -8.0802 -0.9739 -11.4098 -7.9413 3.4047 4.5164 17.6636 15.8544 -7.2087 -19.7845 -71.1769 -0.0002 -47.1554 -0.0001 -22.5234 -15.8282 -15.8583 -0.0000 0.0000 -0.0000 2.0909 3.0419 -10.5076 -4.2837 8.8753 86.2815 -0.0003 56.8626 0.0002 -14.2810 -2.5723 9.8227 -0.0000 0.0000 -0.0000
 13.9197 32.9824 16.5249 -5.9763 -73.9909 -5.6101 4.7534 5.5193 0.6548 13.4242 0.0000 -0.0000 -11.1697 -9.0404 -14.8287 -31.5610 0.0000 -0.0000 -12.2957 -7.5702 -8.3116 44.3199 0.0000 0.0000 -6.6597 -12.2797 27.9605 -19.0565 0.0000 -0.0000 -15.4340 -3.0454 -1.1568 27.2962 -5.3189 -2.0196 19.2324 -7.0201 -1.9155 -12.7859 -7.7803 2.1180 6.5983 18.3453 12.1560 -8.3617 -23.0533 -78.2433 -0.0002 -47.0668 -0.0001 -23.0913 -16.2265 -19.3449 -0.0000 0.0000 -0.0000 2.0917 2.9664 -11.2083 -4.2464 13.2916 90.1784 -0.0003 58.3020 0.0002 -14.5847 -1.0923 6.1397 -0.0000 0.0000 -0.0000
 13.1104 33.0207 16.9550 -2.8561 -74.0767 -4.0167 7.0220 8.1824 1.8096 10.0744 0.0000 0.0000 -10.7056 -11.6371 -15.0245 -31.5886 -0.0000 -0.0000 -19.9193 -8.4060 -5.9275 51.3539 -0.0000 0.0000 -7.0365 -9.5614 28.7754 -19.0122 0.0000 -0.0000 -15.6451 -3.6234 -0.6247 27.5728 -6.0115 -1.9188 19.8783 -6.4849 -2.2320 -12.1786 -7.0442 0.9008 7.3946 17.5394 10.2498 -11.1430 -20.9365 -85.8458 -0.0002 -45.0198 -0.0001 -23.0627 -18.7741 -15.0969 -0.0000 0.0000 -0.0000 1.9975 2.6001 -11.1832 -2.7346 19.3143 89.3635 -0.0003 57.6502 0.0002 -12.7710 1.7272 3.6025 -0.0000 0.0000 -0.0000
 12.1380 32.9546 17.3053 0.8721 -73.8206 -1.6081 9.0204 10.0496 2.8621 7.3048 0.0000 -0.0000 -10.7237 -13.5646 -15.4539 -31.5389 -0.0000 -0.0000 -25.1702 -10.4110 -3.2607 45.4241 -0.0000 0.0000 -5.0510 -4.2832 31.5874 -19.6923 -0.0000 -0.0000 -15.6073 -4.3523 -0.3789 27.8505 -6.9814 -2.0741 20.2585 -6.2286 -2.0587 -12.3824 -5.9977 0.4200 7.1030 16.0179 10.0035 -13.7225 -20.0179 -90.6251 -0.0002 -46.5534 -0.0001 -23.9476 -20.5435 -12.0905 -0.0000 0.0000 -0.0000 1.7323 2.5142 -10.8643 -1.4532 21.2417 88.2534 -0.0003 51.7306 0.0001 -9.7584 3.5511 0.9332 -0.0000 0.0000 -0.0000
 10.9548 32.6761 17.6497 3.4371 -73.8711 0.6842 10.9404 10.9940 2.9569 6.6011 0.0000 0.0000 -12.2214 -14.1687 -15.4042 -30.6650 0.0000 0.0000 -28.1932 -10.8945 -1.0434 32.2757 0.0000 -0.0000 -0.8550 -4.4047 31.2644 -19.9375 0.0000 -0.0000 -15.4600 -4.6668 -0.6583 28.8692 -7.5112 -2.3831 20.5290 -5.8223 -2.1305 -13.5148 -5.4412 0.1943 6.5389 14.6599 10.3662 -17.5666 -24.3630 -91.5689 -0.0003 -51.5457 -0.0001 -23.4020 -20.7603 -10.8797 -0.0000 0.0000 -0.0000 1.4933 2.8325 -9.9044 -0.6487 18.8655 87.0129 -0.0002 43.9384 0.0001 -5.6353 1.6064 -0.9552 -0.0000 0.0000 -0.0000
 9.3867 32.2502 18.0446 4.2136 -73.5929 2.0383 13.6886 12.5108 2.4676 6.6751 -0.0000 0.0000 -14.0338 -15.1406 -15.2833 -29.8209 -0.0000 -0.0000 -28.6064 -12.8941 -0.1544 16.6804 0.0000 -0.0000 4.4505 -2.7534 31.8923 -20.5752 -0.0000 -0.0000 -15.3170 -4.8846 -1.1492 29.9712 -7.9580 -2.7640 21.2819 -5.1848 -2.7488 -14.0191 -5.8867 0.2217 5.8174 14.0071 10.9145 -21.2459 -29.5083 -89.8358 -0.0004 -59.9067 -0.0002 -20.0670 -20.0591 -10.1378 -0.0000 0.0000 -0.0000 1.6623 3.2717 -9.6333 0.1791 16.6807 86.0954 -0.0002 37.2108 0.0001 -2.2884 -0.8302 -0.9977 -0.0000 0.0000 -0.0000
 7.3740 31.7633 18.4962 3.0809 -72.2851 1.9132 17.0687 13.0350 2.2771 7.7055 -0.0000 0.0000 -15.1782 -16.2831 -15.6328 -30.2029 0.0000 -0.0000 -27.8109 -15.3192 -0.2001 6.9057 0.0000 -0.0000 4.4649 -0.4229 30.8196 -20.0308 0.0000 0.0000 -15.0663 -5.1466 -1.6035 30.9665 -8.4024 -3.0451 22.0534 -5.5062 -2.8814 -14.0911 -6.8749 0.8317 4.8717 13.4814 11.5383 -24.1727 -32.6896 -87.4848 -0.0005 -68.2373 -0.0004 -18.2737 -19.3122 -9.1497 -0.0000 0.0000 -0.0000 2.0632 3.3264 -9.5985 2.1574 16.1683 85.0971 -0.0001 34.0770 0.0000 -4.1486 -1.5629 1.0482 -0.0000 0.0000 -0.0000
 4.7418 31.4411 18.9233 1.8790 -70.6120 0.7203 19.9492 14.0494 4.1616 10.4343 0.0000 0.0000 -13.6637 -18.5428 -15.9511 -33.6550 0.0000 0.0000 -27.6153 -17.3582 -0.0812 11.8290 0.0000 0.0000 2.6916 0.0729 28.8868 -20.6928 -0.0000 -0.0000 -15.4288 -5.6553 -1.6270 31.8190 -8.4643 -2.2192 22.5006 -6.4493 -2.5246 -13.7306 -7.4059 0.8965 4.3545 13.0185 12.0053 -26.0296 -34.3460 -86.0901 -0.0007 -72.2196 -0.0005 -16.1073 -18.7510 -8.2934 -0.0000 0.0000 -0.0000 2.3686 2.8265 -9.3250 3.9180 16.6762 84.3568 -0.0001 32.5287 0.0000 -3.7640 -2.4633 2.8668 -0.0000 0.0000 -0.0000
 1.6154 31.4632 19.1981 2.4296 -70.1027 -0.6675 18.6118 12.9209 8.5579 20.1143 0.0000 -0.0000 -7.3959 -17.7087 -14.1762 -42.7657 -0.0000 -0.0000 -26.5470 -14.2466 2.6190 19.1379 -0.0000 -0.0000 5.6849 -3.5825 30.0113 -20.2947 0.0000 0.0000 -15.9356 -6.2022 -0.8818 31.5133 -7.6043 0.1060 22.4342 -7.0401 -2.2969 -13.1917 -7.7634 0.6448 4.1527 12.9490 11.9895 -25.4216 -34.8050 -86.1542 -0.0006 -71.2521 -0.0004 -12.8612 -18.3158 -7.4011 -0.0000 0.0000 -0.0000 2.7428 2.7009 -8.9395 4.0645 16.5562 84.3796 -0.0001 30.2455 0.0000 -4.6293 -2.4427 3.2593 -0.0000 0.0000 -0.0000
 -1.6698 31.8232 19.4536 0.1427 -70.7783 -4.7172 11.6123 9.9699 13.0164 40.5584 0.0000 -0.0000 5.6859 -14.4896 -15.4787 -44.9080 -0.0000 -0.0000 -22.0122 -15.4503 5.5292 24.4552 0.0000 -0.0000 2.2533 -1.8791 27.9105 -19.3727 -0.0000 0.0000 -15.2475 -6.6030 -0.1337 29.6992 -6.6639 2.2987 22.7444 -7.2909 -2.1103 -12.2446 -7.6183 0.4493 5.0631 13.2274 11.8386 -23.8188 -34.0977 -87.9272 -0.0004 -64.4169 -0.0003 -9.1830 -17.8522 -6.8789 -0.0000 0.0000 -0.0000 2.7829 3.5659 -9.6126 1.7731 17.6618 85.7133 -0.0001 26.6068 0.0000 -5.3112 -2.5375 4.2707 -0.0000 0.0000 -0.0000
 -4.6353 32.3486 19.6576 -2.0493 -71.4138 -8.0111 -0.7905 7.2720 17.0555 62.0643 0.0000 0.0000 13.5648 -12.9764 -19.3667 -30.9445 -0.0000 0.0000 -13.1473 -17.1715 8.6250 21.2617 0.0000 0.0000 -1.0558 1.0003 26.8007 -18.9677 -0.0000 0.0000 -14.4715 -6.1718 0.5400 28.0872 -5.4261 3.6369 22.2785 -8.3299 -1.3384 -11.8075 -7.6462 0.8386 5.2142 13.3597 11.5621 -22.2675 -34.1396 -89.7204 -0.0003 -53.5481 -0.0001 -9.4973 -19.2420 -7.9913 -0.0000 0.0000 -0.0000 2.5095 3.8783 -9.5486 -1.6123 19.0068 86.1701 -0.0001 27.4948 0.0000 -5.9766 -1.7873 3.2353 -0.0000 0.0000 -0.0000
 -7.4139 32.9141 20.0104 -6.7415 -73.5441 -11.5847 -10.7707 6.6137 16.4832 70.2320 0.0000 -0.0000 3.2075 -12.4557 -16.9309 -30.8037 -0.0000 -0.0000 -3.1039 -15.4306 9.6705 13.9988 0.0000 0.0000 -1.6345 3.7467 28.5768 -19.0087 0.0000 0.0000 -14.0973 -5.0393 0.3148 27.6017 -4.2365 3.4228 21.8661 -8.1859 -1.1196 -12.9746 -7.0165 0.8662 5.7310 13.8508 11.0821 -19.3534 -31.2513 -90.6317 -0.0002 -42.3035 -0.0001 -12.3459 -20.2459 -8.4085 -0.0000 0.0000 -0.0000 1.9214 4.8154 -9.3960 -6.1542 21.9945 85.3803 -0.0001 30.2627 0.0000 -6.7255 -0.8729 1.9267 -0.0000 0.0000 -0.0000
 -10.0279 33.2718 20.4352 -11.3828 -77.3007 -14.1356 -18.6060 8.1937 13.4488 65.0046 0.0000 0.0000 -3.5999 -6.9331 -15.0332 -30.1661 -0.0000 -0.0000 5.5521 -16.0724 8.6600 7.1064 0.0000 0.0000 -1.3858 9.4935 28.6439 -19.2689 -0.0000 -0.0000 -14.3191 -3.5755 -0.2846 27.4184 -3.0895 2.4157 21.3656 -7.0380 -1.4938 -14.9861 -6.0645 0.3733 6.2264 14.8100 10.5249 -15.0172 -27.0932 -90.0235 -0.0001 -32.8353 -0.0000 -14.0219 -21.2340 -8.3750 -0.0000 0.0000 -0.0000 0.7351 6.1662 -9.9564 -10.7791 24.8479 84.6288 -0.0001 34.6914 0.0000 -4.9796 -0.6041 0.9003 -0.0000 0.0000 -0.0000
